<?xml version="1.0"?>
<svg xmlns="http://www.w3.org/2000/svg" xmlns:xlink="http://www.w3.org/1999/xlink" version="1.1" id="Layer_1" x="0px" y="0px" viewBox="0 0 511.854 511.854" style="enable-background:new 0 0 511.854 511.854;" xml:space="preserve" width="512px" height="512px" class=""><g><g>
	<g>
		<path d="M511.854,101.955c0-2.27-0.905-4.437-2.5-6.033L418.952,5.52c-3.362-3.234-9.114-3.191-12.399,0.111l-17.877,17.886    c-3.337-3.337-8.738-3.337-12.075,0L62.839,337.279c-0.12,0.12-0.162,0.282-0.273,0.41c-0.546,0.614-0.998,1.289-1.348,2.031    c-0.145,0.307-0.256,0.606-0.358,0.922c-0.222,0.657-0.341,1.331-0.393,2.031c-0.026,0.324-0.077,0.631-0.068,0.964    c0.009,0.145-0.043,0.29-0.026,0.444l1.391,15.411c2.714,29.867-7.893,59.153-29.099,80.367c-3.328,3.328-3.328,8.73,0,12.066    h0.009L2.5,482.098c-2.091,2.091-2.953,5.112-2.27,7.987c0.674,2.884,2.799,5.205,5.598,6.135l36.207,12.066    c0.887,0.299,1.792,0.444,2.697,0.444c2.227,0,4.412-0.879,6.033-2.5l18.108-18.099c1.596,1.596,3.772,2.5,6.033,2.5    c2.27,0,4.437-0.905,6.042-2.5l4.181-4.19c19.029-19.029,44.331-29.508,71.253-29.517h15.061c1.024,0,1.988-0.23,2.91-0.572    c0.265-0.094,0.503-0.23,0.759-0.358c0.7-0.341,1.348-0.76,1.929-1.28c0.137-0.119,0.307-0.162,0.444-0.29l313.762-313.771    c3.337-3.328,3.337-8.73,0-12.066l18.108-18.099C510.95,106.384,511.854,104.225,511.854,101.955z M74.922,470.049l-24.371-24.38    c19.209-22.178,29.397-50.586,28.664-79.94l71.757,71.748C122.384,438.774,95.65,450.2,74.922,470.049z M165.41,319.18    c-1.664,1.664-3.849,2.5-6.033,2.5c-2.176,0-4.361-0.836-6.033-2.5c-3.328-3.337-3.328-8.73,0-12.066l205.158-205.158    c3.337-3.337,8.73-3.337,12.066,0c3.337,3.337,3.337,8.73,0,12.066L165.41,319.18z M412.808,156.261L207.65,361.411    c-1.664,1.673-3.849,2.5-6.033,2.5c-2.185,0-4.369-0.828-6.033-2.5c-3.336-3.328-3.336-8.73,0-12.066l205.158-205.15    c3.328-3.328,8.73-3.328,12.066,0C416.136,147.532,416.136,152.933,412.808,156.261z M479.18,114.021l-78.438-78.438    l12.066-12.066l78.447,78.438L479.18,114.021z" data-original="#000000" class="active-path" data-old_color="#2C1085" fill="#1B0857"/>
	</g>
</g></g> </svg>
